<?xml version="1.0" encoding="UTF-8"?>
<svg version="1.1" xmlns="http://www.w3.org/2000/svg" width="47" height="51">
<path d="M0 0 C1.68359375 1.2578125 1.68359375 1.2578125 3 3 C3.14453125 5.015625 3.14453125 5.015625 2.8125 7.25 C2.69648437 8.04921875 2.58046875 8.8484375 2.4609375 9.671875 C2 12 2 12 0.9375 15.5 C0.10684469 18.60111315 -0.00707799 20.22627683 0.1875 23.3125 C0.34598701 28.22559741 -1.54950782 31.2981411 -3.8984375 35.50390625 C-5.37189707 38.84270293 -5.28536139 41.51235281 -4.8828125 45.08984375 C-5 47 -5 47 -6.3046875 48.75390625 C-8 50 -8 50 -11 50 C-11 49.34 -11 48.68 -11 48 C-12.32 47.67 -13.64 47.34 -15 47 C-14.67 46.01 -14.34 45.02 -14 44 C-16.44480079 44.18828772 -16.44480079 44.18828772 -19 45 C-20.09166275 46.93330603 -20.09166275 46.93330603 -21 49 C-23.125 50.25 -23.125 50.25 -25 51 C-26.32 49.02 -27.64 47.04 -29 45 C-30.0209375 45.495 -30.0209375 45.495 -31.0625 46 C-34.59199518 47.20153027 -37.2934027 47.34320345 -41 47 C-42.72265625 45.74609375 -42.72265625 45.74609375 -44 44 C-44.14453125 41.984375 -44.14453125 41.984375 -43.8125 39.75 C-43.69648437 38.95078125 -43.58046875 38.1515625 -43.4609375 37.328125 C-43 35 -43 35 -41.9375 31.5 C-41.11087539 28.41393481 -40.97173357 26.65425377 -41.125 23.5625 C-41.23397501 17.73729032 -39.32201157 13.48158108 -35.3515625 9.23828125 C-30.25419882 4.64175024 -26.09052111 2.70970088 -19.125 3.0625 C-12.18792069 3.20702249 -6.70900118 -0.9148638 0 0 Z M-11 5 C-10.2575 5.7425 -9.515 6.485 -8.75 7.25 C-6.5 9.5 -4.25 11.75 -2 14 C0.08997373 10.60379269 0.2632246 7.94836905 0 4 C-1.03119607 2.75348985 -1.03119607 2.75348985 -3.25 2.8125 C-6.20562064 3.01401959 -8.32037079 3.77502665 -11 5 Z M-25 6 C-25 8.64 -25 11.28 -25 14 C-25.99 14.33 -26.98 14.66 -28 15 C-28.33 15.99 -28.66 16.98 -29 18 C-33.455 18.495 -33.455 18.495 -38 19 C-38.40397804 26.95121039 -38.40397804 26.95121039 -35 34 C-31.78727396 35.23566386 -29.19321188 35.32132906 -26 34 C-25.34 33.01 -24.68 32.02 -24 31 C-25.32 31.33 -26.64 31.66 -28 32 C-28.33 30.68 -28.66 29.36 -29 28 C-30.32 28.33 -31.64 28.66 -33 29 C-33 28.01 -33 27.02 -33 26 C-33.66 26 -34.32 26 -35 26 C-34.125 23.5 -34.125 23.5 -32 21 C-28.63291991 20.53912752 -25.37885612 20.71473072 -22 21 C-21.731875 20.030625 -21.46375 19.06125 -21.1875 18.0625 C-20.795625 17.051875 -20.40375 16.04125 -20 15 C-19.01 14.67 -18.02 14.34 -17 14 C-16.28272222 12.35448038 -15.61674772 10.68577711 -15 9 C-14.34 8.34 -13.68 7.68 -13 7 C-15.88211302 6.03929566 -17.69850044 5.89418117 -20.6875 5.9375 C-21.49574219 5.94652344 -22.30398437 5.95554687 -23.13671875 5.96484375 C-23.75160156 5.97644531 -24.36648437 5.98804688 -25 6 Z M-34.375 11.875 C-36.20248337 13.81893314 -36.20248337 13.81893314 -36 16 C-33.71305777 16.50379029 -33.71305777 16.50379029 -31 16 C-29.00977164 14.16038352 -27.61010101 12.20813852 -26 10 C-29.70293685 9.66336938 -31.39534381 9.52263985 -34.375 11.875 Z M-12 10 C-12.598125 10.969375 -13.19625 11.93875 -13.8125 12.9375 C-16 16 -16 16 -19 17 C-18.67 18.32 -18.34 19.64 -18 21 C-12.63283335 21.83861979 -9.20372761 18.92070405 -5 16 C-6.78907722 12.24848856 -6.78907722 12.24848856 -10.1875 10.1875 C-10.785625 10.125625 -11.38375 10.06375 -12 10 Z M-17 28 C-19.06371682 30.28635846 -21.02289671 32.63712046 -23 35 C-26.22791555 37.1519437 -27.28400809 37.20086443 -31 37 C-31.33 37.66 -31.66 38.32 -32 39 C-30.576875 39.309375 -30.576875 39.309375 -29.125 39.625 C-26 41 -26 41 -24.625 44.125 C-24.315625 45.548125 -24.315625 45.548125 -24 47 C-23.34 46.34 -22.68 45.68 -22 45 C-22.32041397 42.39719432 -22.32041397 42.39719432 -23 40 C-22.443125 39.773125 -21.88625 39.54625 -21.3125 39.3125 C-18.32038397 37.61427198 -16.38399465 35.49235804 -14 33 C-11.92543865 30.95341924 -9.84795514 28.90984501 -7.76953125 26.8671875 C-5.23924111 24.19725663 -4 22.75311501 -4 19 C-9.50238013 19 -13.23535758 24.30572473 -17 28 Z M-31 23 C-31 23.66 -31 24.32 -31 25 C-29.76115681 25.72767003 -28.50831659 26.43154815 -27.25 27.125 C-26.55390625 27.51945312 -25.8578125 27.91390625 -25.140625 28.3203125 C-22.99848367 29.22916165 -22.99848367 29.22916165 -20.859375 28.3046875 C-18.71808722 26.96983081 -18.71808722 26.96983081 -17 24 C-21.76307437 23.04738513 -26.1666528 22.91666643 -31 23 Z M-4 26 C-5.0260734 27.31337396 -6.02727325 28.64664105 -7 30 C-6.01 31.485 -6.01 31.485 -5 33 C-4.34 30.69 -3.68 28.38 -3 26 C-3.33 26 -3.66 26 -4 26 Z M-12.0625 34 C-12.701875 34.66 -13.34125 35.32 -14 36 C-12.94124926 39.40312738 -11.99097846 42.01353231 -10 45 C-9.34 45 -8.68 45 -8 45 C-8.33 40.71 -8.66 36.42 -9 32 C-10.35917681 31.88397569 -10.35917681 31.88397569 -12.0625 34 Z M-39 33 C-40.59555725 36.49028148 -41.32049797 39.15402433 -41 43 C-39.88833136 44.33187793 -39.88833136 44.33187793 -37.0625 44.1875 C-33.89107141 44.33278733 -33.89107141 44.33278733 -32 42 C-32.99 41.34 -33.98 40.68 -35 40 C-36.07136051 37.69855891 -37.07989717 35.3659787 -38 33 C-38.33 33 -38.66 33 -39 33 Z M-17 39 C-17.33 39.66 -17.66 40.32 -18 41 C-17.34 41 -16.68 41 -16 41 C-16.33 40.34 -16.66 39.68 -17 39 Z " fill="#510385" transform="translate(44,0)"/>
<path d="M0 0 C0 0.99 0 1.98 0 3 C-0.639375 3.20625 -1.27875 3.4125 -1.9375 3.625 C-4.34069672 4.87885291 -4.34069672 4.87885291 -4.625 8 C-4.810625 9.485 -4.810625 9.485 -5 11 C-5.66 11.66 -6.32 12.32 -7 13 C-8.32 13 -9.64 13 -11 13 C-11 12.34 -11 11.68 -11 11 C-10.01 11 -9.02 11 -8 11 C-7.7834375 10.0409375 -7.7834375 10.0409375 -7.5625 9.0625 C-7 7 -7 7 -6 6 C-7.65 5.67 -9.3 5.34 -11 5 C-7.71379848 2.80919899 -4.78119262 2.05033128 -1 1 C-0.67 0.67 -0.34 0.34 0 0 Z " fill="#4B067E" transform="translate(32,19)"/>
<path d="M0 0 C1.98 0.495 1.98 0.495 4 1 C4 1.66 4 2.32 4 3 C4.99 3.33 5.98 3.66 7 4 C5.68 4.33 4.36 4.66 3 5 C3 4.34 3 3.68 3 3 C1.68 2.67 0.36 2.34 -1 2 C-0.67 1.34 -0.34 0.68 0 0 Z " fill="#4F057C" transform="translate(30,45)"/>
</svg>
