<?xml version="1.0" encoding="UTF-8"?>
<svg version="1.1" xmlns="http://www.w3.org/2000/svg" width="59" height="51">
<path d="M0 0 C1.1034375 -0.00515625 2.206875 -0.0103125 3.34375 -0.015625 C6.53306632 0.25278281 8.69795184 0.71483532 11.5 2.25 C13.25 5.8125 13.25 5.8125 14.5 9.25 C14.995 9.745 14.995 9.745 15.5 10.25 C15.83 8.27 16.16 6.29 16.5 4.25 C17.49 4.25 18.48 4.25 19.5 4.25 C19.995 13.655 19.995 13.655 20.5 23.25 C25.12 23.25 29.74 23.25 34.5 23.25 C34.5 20.61 34.5 17.97 34.5 15.25 C35.49 15.25 36.48 15.25 37.5 15.25 C37.52689216 16.72906892 37.54634621 18.20827483 37.5625 19.6875 C37.57410156 20.51121094 37.58570313 21.33492187 37.59765625 22.18359375 C37.5 24.25 37.5 24.25 36.5 25.25 C33.63732433 25.32325168 30.799281 25.34238205 27.9375 25.3125 C27.13119141 25.30798828 26.32488281 25.30347656 25.49414062 25.29882812 C23.49606244 25.28700518 21.49802217 25.26906914 19.5 25.25 C19.005 26.735 19.005 26.735 18.5 28.25 C14.01929752 30.49035124 7.93447387 29.5185735 2.9519043 29.54516602 C0.70624427 29.56235651 -1.53793433 29.60624 -3.78320312 29.65039062 C-5.21613503 29.66052001 -6.64907943 29.66903535 -8.08203125 29.67578125 C-9.38374268 29.69036377 -10.6854541 29.70494629 -12.02661133 29.7199707 C-16.04929945 29.17567643 -17.66039736 28.08894204 -20.5 25.25 C-22.10127074 22.04745853 -21.90701607 19.79685436 -21.5 16.25 C-19.84597049 13.54911636 -17.97718253 11.23295146 -15.5 9.25 C-14.51 9.25 -13.52 9.25 -12.5 9.25 C-12.17 6.94 -11.84 4.63 -11.5 2.25 C-7.53869906 0.38759732 -4.36265773 -0.02038625 0 0 Z M-9.5 4.25 C-9.5 5.57 -9.5 6.89 -9.5 8.25 C-8.18 8.91 -6.86 9.57 -5.5 10.25 C-6.40492187 10.39695312 -6.40492187 10.39695312 -7.328125 10.546875 C-11.01937477 11.23749592 -13.89985697 11.85478386 -17.0625 13.9375 C-19.09589807 17.20861864 -18.98034584 19.47585408 -18.5 23.25 C-17.49171371 25.07927982 -17.49171371 25.07927982 -15.5 26.25 C-12.14053678 26.71546341 -12.14053678 26.71546341 -8.27734375 26.6484375 C-7.22541588 26.65274277 -7.22541588 26.65274277 -6.15223694 26.65713501 C-4.6720397 26.659174 -3.19181542 26.65365552 -1.71166992 26.64111328 C0.55806403 26.62503143 2.82602395 26.64097794 5.09570312 26.66015625 C6.53385811 26.65817426 7.97201198 26.65433149 9.41015625 26.6484375 C10.72121338 26.64505371 12.03227051 26.64166992 13.38305664 26.63818359 C14.41164795 26.51008301 15.44023926 26.38198242 16.5 26.25 C18.74621573 23.50394157 18.74621573 23.50394157 18.4375 20.75 C17.17252952 17.37674537 15.69657855 16.81616145 12.5 15.25 C9.7552038 14.79499466 9.7552038 14.79499466 6.8671875 14.8515625 C5.28744141 14.84576172 5.28744141 14.84576172 3.67578125 14.83984375 C2.58652344 14.85144531 1.49726563 14.86304688 0.375 14.875 C-0.72199219 14.86339844 -1.81898437 14.85179687 -2.94921875 14.83984375 C-4.52509766 14.84564453 -4.52509766 14.84564453 -6.1328125 14.8515625 C-7.09074707 14.85494629 -8.04868164 14.85833008 -9.03564453 14.86181641 C-11.87024987 15.30832151 -12.75063275 16.03413482 -14.5 18.25 C-13.84 19.57 -13.18 20.89 -12.5 22.25 C-6.89 22.25 -1.28 22.25 4.5 22.25 C4.5 22.91 4.5 23.57 4.5 24.25 C-2.1 24.25 -8.7 24.25 -15.5 24.25 C-15.5 16.25 -15.5 16.25 -13.5 14.25 C-10.88623047 13.93115234 -10.88623047 13.93115234 -7.6171875 13.8359375 C-6.45058594 13.79726563 -5.28398437 13.75859375 -4.08203125 13.71875 C-2.85871094 13.6878125 -1.63539062 13.656875 -0.375 13.625 C0.85605469 13.58632813 2.08710938 13.54765625 3.35546875 13.5078125 C6.40349376 13.4133001 9.45150862 13.32774506 12.5 13.25 C12.5 12.59 12.5 11.93 12.5 11.25 C7.22 11.25 1.94 11.25 -3.5 11.25 C-3.5 10.26 -3.5 9.27 -3.5 8.25 C0.79 8.25 5.08 8.25 9.5 8.25 C9.17 6.6 8.84 4.95 8.5 3.25 C1.95688671 2.37442969 -3.26647981 1.8951146 -9.5 4.25 Z " fill="#510287" transform="translate(21.5,21.75)"/>
<path d="M0 0 C0.7940625 -0.01417969 1.588125 -0.02835937 2.40625 -0.04296875 C4.5 0.1875 4.5 0.1875 6.5 2.1875 C6.9140625 4.5703125 6.9140625 4.5703125 7.125 7.3125 C7.19976562 8.22257813 7.27453125 9.13265625 7.3515625 10.0703125 C7.40054688 10.76898438 7.44953125 11.46765625 7.5 12.1875 C8.16 12.1875 8.82 12.1875 9.5 12.1875 C9.54898438 11.40503906 9.59796875 10.62257813 9.6484375 9.81640625 C9.72320312 8.80449219 9.79796875 7.79257813 9.875 6.75 C9.94460937 5.74066406 10.01421875 4.73132813 10.0859375 3.69140625 C10.22257812 2.86511719 10.35921875 2.03882813 10.5 1.1875 C12.85346396 0.01076802 14.3806033 0.02126134 17 0 C17.7940625 -0.01417969 18.588125 -0.02835937 19.40625 -0.04296875 C21.5 0.1875 21.5 0.1875 23.5 2.1875 C23.84593876 4.6222082 23.94184166 7.02881481 24.05859375 9.484375 C24.36256847 12.30444849 24.36256847 12.30444849 26.0234375 14.9296875 C27.9866121 19.26113623 27.83326017 22.87575001 27.6875 27.5625 C27.66719727 28.80966797 27.66719727 28.80966797 27.64648438 30.08203125 C27.61139059 32.11747066 27.55759228 34.15257291 27.5 36.1875 C26.51 36.1875 25.52 36.1875 24.5 36.1875 C24.470271 35.34771606 24.470271 35.34771606 24.43994141 34.4909668 C24.34462217 31.95184146 24.23497247 29.41353112 24.125 26.875 C24.0940625 25.99392578 24.063125 25.11285156 24.03125 24.20507812 C23.97324219 22.93374023 23.97324219 22.93374023 23.9140625 21.63671875 C23.8826416 20.85643311 23.8512207 20.07614746 23.81884766 19.2722168 C23.60412111 16.88594232 23.60412111 16.88594232 21.5 14.1875 C19.36746355 13.71062697 19.36746355 13.71062697 17 13.8125 C16.2059375 13.80476562 15.411875 13.79703125 14.59375 13.7890625 C13.9028125 13.92054687 13.211875 14.05203125 12.5 14.1875 C10.20366176 17.63200737 9.95983515 20.12562283 9.5 24.1875 C8.51 24.1875 7.52 24.1875 6.5 24.1875 C6.54125 23.094375 6.5825 22.00125 6.625 20.875 C6.82074666 17.09857771 6.82074666 17.09857771 4.5 14.1875 C2.29274927 13.82387182 2.29274927 13.82387182 -0.125 14 C-0.94226562 14.02707031 -1.75953125 14.05414063 -2.6015625 14.08203125 C-3.22804688 14.11683594 -3.85453125 14.15164063 -4.5 14.1875 C-5.49 16.4975 -6.48 18.8075 -7.5 21.1875 C-8.49 20.8575 -9.48 20.5275 -10.5 20.1875 C-8.625 14.4375 -8.625 14.4375 -7.5 12.1875 C-7.22641885 9.33443938 -7.05374758 6.48179544 -6.87890625 3.62109375 C-6.75386719 2.81800781 -6.62882812 2.01492187 -6.5 1.1875 C-4.14653604 0.01076802 -2.6193967 0.02126134 0 0 Z M-3.5 3.1875 C-3.5 3.5175 -3.5 3.8475 -3.5 4.1875 C-1.19 4.1875 1.12 4.1875 3.5 4.1875 C3.5 3.8575 3.5 3.5275 3.5 3.1875 C1.19 3.1875 -1.12 3.1875 -3.5 3.1875 Z M13.5 3.1875 C13.5 3.5175 13.5 3.8475 13.5 4.1875 C15.81 4.1875 18.12 4.1875 20.5 4.1875 C20.5 3.8575 20.5 3.5275 20.5 3.1875 C18.19 3.1875 15.88 3.1875 13.5 3.1875 Z M-3.5 6.1875 C-3.5 7.5075 -3.5 8.8275 -3.5 10.1875 C-1.19 10.1875 1.12 10.1875 3.5 10.1875 C3.5 8.8675 3.5 7.5475 3.5 6.1875 C1.19 6.1875 -1.12 6.1875 -3.5 6.1875 Z M13.5 6.1875 C13.5 7.5075 13.5 8.8275 13.5 10.1875 C15.81 10.1875 18.12 10.1875 20.5 10.1875 C20.5 8.8675 20.5 7.5475 20.5 6.1875 C18.19 6.1875 15.88 6.1875 13.5 6.1875 Z " fill="#4D0580" transform="translate(31.5,-0.1875)"/>
<path d="M0 0 C4.10410755 -0.05796132 8.20811016 -0.09358313 12.3125 -0.125 C13.47974609 -0.14175781 14.64699219 -0.15851562 15.84960938 -0.17578125 C16.96787109 -0.18222656 18.08613281 -0.18867187 19.23828125 -0.1953125 C20.26993408 -0.20578613 21.30158691 -0.21625977 22.36450195 -0.22705078 C25 0 25 0 28 2 C27.67 3.65 27.34 5.3 27 7 C23.7 7 20.4 7 17 7 C17 6.34 17 5.68 17 5 C19.64 5 22.28 5 25 5 C25 4.34 25 3.68 25 3 C16.75 3 8.5 3 0 3 C0 2.01 0 1.02 0 0 Z " fill="#4D0580" transform="translate(10,39)"/>
<path d="M0 0 C1.65 0.33 3.3 0.66 5 1 C5.05395478 2.62463842 5.09277195 4.24978541 5.125 5.875 C5.14820313 6.77992188 5.17140625 7.68484375 5.1953125 8.6171875 C5 11 5 11 3 13 C-3.32258065 13.33870968 -3.32258065 13.33870968 -6 12 C-6 11.34 -6 10.68 -6 10 C-3.03 10 -0.06 10 3 10 C2.34 8.02 1.68 6.04 1 4 C-0.65 3.67 -2.3 3.34 -4 3 C-2.68 2.67 -1.36 2.34 0 2 C0 1.34 0 0.68 0 0 Z " fill="#51018C" transform="translate(32,0)"/>
<path d="M0 0 C1.23556641 0.01740234 1.23556641 0.01740234 2.49609375 0.03515625 C3.32238281 0.04417969 4.14867187 0.05320313 5 0.0625 C5.63808594 0.07410156 6.27617188 0.08570313 6.93359375 0.09765625 C7.59359375 1.41765625 8.25359375 2.73765625 8.93359375 4.09765625 C5.95117828 4.87087507 2.957789 5.50961828 -0.06640625 6.09765625 C-0.39640625 7.41765625 -0.72640625 8.73765625 -1.06640625 10.09765625 C-1.72640625 10.09765625 -2.38640625 10.09765625 -3.06640625 10.09765625 C-3.09329841 8.61858733 -3.11275246 7.13938142 -3.12890625 5.66015625 C-3.14050781 4.83644531 -3.15210938 4.01273437 -3.1640625 3.1640625 C-3.03158405 0.36081842 -2.80324408 0.13247845 0 0 Z " fill="#51018E" transform="translate(46.06640625,-0.09765625)"/>
<path d="M0 0 C1.485 0.99 1.485 0.99 3 2 C6.36343474 2.33776264 6.36343474 2.33776264 10.22265625 2.34375 C11.27458412 2.3656842 11.27458412 2.3656842 12.34776306 2.38806152 C15.34567312 2.45029855 18.34378686 2.48999328 21.34204102 2.53173828 C23.53163429 2.56542068 25.72078656 2.61053614 27.91015625 2.65625 C29.87674194 2.68428711 29.87674194 2.68428711 31.88305664 2.71289062 C35 3 35 3 37 5 C36.01 5.33 35.02 5.66 34 6 C34 5.34 34 4.68 34 4 C33.01080566 4.04600342 32.02161133 4.09200684 31.00244141 4.1394043 C27.33909555 4.30573034 23.67517733 4.45194813 20.01074219 4.59204102 C18.42359829 4.65554626 16.83666404 4.72453429 15.25 4.79907227 C12.97168053 4.90515652 10.6933391 4.99162167 8.4140625 5.07421875 C7.34679428 5.1302552 7.34679428 5.1302552 6.25796509 5.18742371 C4.25634766 5.2487793 4.25634766 5.2487793 1 5 C0.34 4.01 -0.32 3.02 -1 2 C-0.67 1.34 -0.34 0.68 0 0 Z " fill="#4B0776" transform="translate(3,45)"/>
<path d="M0 0 C0.99 0.33 1.98 0.66 3 1 C4.33363703 1.14403348 5.67218046 1.24590423 7.01171875 1.31640625 C8.14770508 1.37924805 8.14770508 1.37924805 9.30664062 1.44335938 C10.48516602 1.50233398 10.48516602 1.50233398 11.6875 1.5625 C12.88342773 1.62727539 12.88342773 1.62727539 14.10351562 1.69335938 C16.06881447 1.79927368 18.03438496 1.90012551 20 2 C20 2.66 20 3.32 20 4 C13.4 4 6.8 4 0 4 C-0.33 3.01 -0.66 2.02 -1 1 C-0.67 0.67 -0.34 0.34 0 0 Z " fill="#490973" transform="translate(6,42)"/>
<path d="M0 0 C1.98 0.66 3.96 1.32 6 2 C5.67 2.66 5.34 3.32 5 4 C3.35 4 1.7 4 0 4 C-0.33 3.01 -0.66 2.02 -1 1 C-0.67 0.67 -0.34 0.34 0 0 Z " fill="#460881" transform="translate(6,42)"/>
<path d="M0 0 C0 0.66 0 1.32 0 2 C-2.70879335 3.35439668 -5.00933268 3.06501451 -8 3 C-8 2.34 -8 1.68 -8 1 C-5.23735711 0.40267181 -2.83967231 0 0 0 Z " fill="#4D028F" transform="translate(54,10)"/>
</svg>
