<?xml version="1.0" encoding="UTF-8"?>
<svg version="1.1" xmlns="http://www.w3.org/2000/svg" width="64" height="64">
<path d="M0 0 C4.62 0 9.24 0 14 0 C14 5 14 5 12 8 C14.08412907 7.93976506 16.16744435 7.85091679 18.25 7.75 C19.99023438 7.68039062 19.99023438 7.68039062 21.765625 7.609375 C25.10070744 7.2958281 25.10070744 7.2958281 27.109375 4.890625 C29 3 29 3 31.41015625 2.8984375 C34.92140329 4.39190909 37.00935681 6.78605184 39.4375 9.625 C39.91541992 10.16825928 40.39333984 10.71151855 40.88574219 11.27124023 C41.83263935 12.35007945 42.77499859 13.43292133 43.71240234 14.52001953 C44.81154737 15.78339024 45.94362542 17.01798239 47.08203125 18.24609375 C48.75 20.0625 48.75 20.0625 51 23 C50.505 24.485 50.505 24.485 50 26 C48.68 26 47.36 26 46 26 C46.36435104 31.42757405 47.22775716 35.97808687 49.30078125 41.00390625 C50.45105277 44.28764225 50.6914875 47.54466001 51 51 C49.68 51 48.36 51 47 51 C47 52.32 47 53.64 47 55 C48.32 55 49.64 55 51 55 C51 55.99 51 56.98 51 58 C29.88 58 8.76 58 -13 58 C-12.505 55.03 -12.505 55.03 -12 52 C-11.34 52 -10.68 52 -10 52 C-9.67 46.72 -9.34 41.44 -9 36 C-10.32 36 -11.64 36 -13 36 C-12.49942848 31.61999924 -11.06806466 29.15830185 -8 26 C-7.01 26 -6.02 26 -5 26 C-5 23.03 -5 20.06 -5 17 C-5.99 17 -6.98 17 -8 17 C-7.42558597 13.12270528 -5.70745361 10.78480942 -3 8 C-1.68 8 -0.36 8 1 8 C0.67 7.34 0.34 6.68 0 6 C0 4.02 0 2.04 0 0 Z M2 2 C2 2.33 2 2.66 2 3 C4.97 3 7.94 3 11 3 C11 2.67 11 2.34 11 2 C8.03 2 5.06 2 2 2 Z M4 6 C4 7.32 4 8.64 4 10 C5.65 10 7.3 10 9 10 C9 8.68 9 7.36 9 6 C7.35 6 5.7 6 4 6 Z M0 10 C-1.485 11.98 -1.485 11.98 -3 14 C0.77057547 14.11597653 4.54069393 14.18717396 8.3125 14.25 C9.38435547 14.28351562 10.45621094 14.31703125 11.56054688 14.3515625 C13.10258789 14.37089844 13.10258789 14.37089844 14.67578125 14.390625 C15.62364502 14.41157227 16.57150879 14.43251953 17.5480957 14.45410156 C20.57003893 14.18072439 20.57003893 14.18072439 23 10 C19.37 10 15.74 10 12 10 C12 10.66 12 11.32 12 12 C8.37 12 4.74 12 1 12 C0.67 11.34 0.34 10.68 0 10 Z M30 12 C25.04104219 15.16375068 21.23724568 18.51667376 19 24 C17.52641279 34.21291231 18.32556507 44.74104288 19 55 C20.98 55 22.96 55 25 55 C25 49.39 25 43.78 25 38 C28.96 38 32.92 38 37 38 C37 40.31 37 42.62 37 45 C36.01 45 35.02 45 34 45 C34 43.68 34 42.36 34 41 C31.69 41 29.38 41 27 41 C27 42.65 27 44.3 27 46 C27.99 46 28.98 46 30 46 C30 47.65 30 49.3 30 51 C29.01 51 28.02 51 27 51 C27 52.32 27 53.64 27 55 C29.31 55 31.62 55 34 55 C34.33 52.69 34.66 50.38 35 48 C35.99 48 36.98 48 38 48 C38.19335938 47.24074219 38.38671875 46.48148438 38.5859375 45.69921875 C38.84632812 44.70535156 39.10671875 43.71148437 39.375 42.6875 C39.75785156 41.20830078 39.75785156 41.20830078 40.1484375 39.69921875 C41 37 41 37 43 34 C43.48399989 30.62888449 43.47152116 27.3727631 43 24 C41.207809 21.53827847 41.207809 21.53827847 39 20 C38.67 19.01 38.34 18.02 38 17 C38.66 16.67 39.32 16.34 40 16 C39.01 15.01 38.02 14.02 37 13 C37 13.99 37 14.98 37 16 C36.21625 15.525625 35.4325 15.05125 34.625 14.5625 C33.11051322 13.66101977 31.5764103 12.78820515 30 12 Z M10 17 C10.33 18.65 10.66 20.3 11 22 C12.65 20.35 14.3 18.7 16 17 C14.02 17 12.04 17 10 17 Z M19 18 C20 20 20 20 20 20 Z M-2 20 C-2 20.99 -2 21.98 -2 23 C-0.02 23 1.96 23 4 23 C4 22.01 4 21.02 4 20 C2.02 20 0.04 20 -2 20 Z M7 20 C8 23 8 23 8 23 Z M-9 33 C-4.38 33 0.24 33 5 33 C5 33.99 5 34.98 5 36 C1.37 36 -2.26 36 -6 36 C-6 36.66 -6 37.32 -6 38 C5.02878574 39.01025932 5.02878574 39.01025932 16 38 C16 37.34 16 36.68 16 36 C13.03 36 10.06 36 7 36 C7 35.01 7 34.02 7 33 C9.97 33 12.94 33 16 33 C16 31.68 16 30.36 16 29 C12.39610336 28.88398996 8.79268533 28.81281592 5.1875 28.75 C4.16333984 28.71648438 3.13917969 28.68296875 2.08398438 28.6484375 C0.60961914 28.62910156 0.60961914 28.62910156 -0.89453125 28.609375 C-1.80050049 28.58842773 -2.70646973 28.56748047 -3.63989258 28.54589844 C-6.57798395 28.83699844 -6.57798395 28.83699844 -9 33 Z M-3 41 C-3 42.98 -3 44.96 -3 47 C-2.01 47.495 -2.01 47.495 -1 48 C-1 45.69 -1 43.38 -1 41 C-1.66 41 -2.32 41 -3 41 Z M4 41 C4 42.98 4 44.96 4 47 C4.66 47 5.32 47 6 47 C6 45.02 6 43.04 6 41 C5.34 41 4.68 41 4 41 Z M12 41 C12 43.64 12 46.28 12 49 C12.33 49 12.66 49 13 49 C13 46.36 13 43.72 13 41 C12.67 41 12.34 41 12 41 Z M42 46 C41.67 46.99 41.34 47.98 41 49 C43.31 49 45.62 49 48 49 C47.34 48.01 46.68 47.02 46 46 C44.68 46 43.36 46 42 46 Z M-3 52 C-0.69 52 1.62 52 4 52 C3.67 51.01 3.34 50.02 3 49 C0.23776722 49 -0.89281454 50.31425163 -3 52 Z M-7 50 C-6 52 -6 52 -6 52 Z M9 51 C9.33 52.32 9.66 53.64 10 55 C11.98 55 13.96 55 16 55 C16 53.68 16 52.36 16 51 C13.69 51 11.38 51 9 51 Z M37 51 C37 52.32 37 53.64 37 55 C38.32 55 39.64 55 41 55 C41 53.68 41 52.36 41 51 C39.68 51 38.36 51 37 51 Z " fill="#500287" transform="translate(13,0)"/>
<path d="M0 0 C1.81242052 -0.02687279 3.62495233 -0.04633715 5.4375 -0.0625 C6.44683594 -0.07410156 7.45617187 -0.08570312 8.49609375 -0.09765625 C11 0 11 0 12 1 C12.26309739 2.97323039 12.52196239 4.94730726 12.7421875 6.92578125 C12.98924216 9.15598387 12.98924216 9.15598387 13.625 11.9375 C13.74875 12.618125 13.8725 13.29875 14 14 C13 15 13 15 9.875 15.1328125 C8.59625 15.13023438 7.3175 15.12765625 6 15.125 C4.72125 15.12757812 3.4425 15.13015625 2.125 15.1328125 C-1 15 -1 15 -2 14 C-2.04063832 12.33382885 -2.042721 10.66611905 -2 9 C-1.34 9 -0.68 9 0 9 C0 6.03 0 3.06 0 0 Z M3 2 C3 4.31 3 6.62 3 9 C4.98 9 6.96 9 9 9 C9 6.69 9 4.38 9 2 C7.02 2 5.04 2 3 2 Z " fill="#510187" transform="translate(38,21)"/>
<path d="M0 0 C3.96 0 7.92 0 12 0 C12 2.31 12 4.62 12 7 C11.01 7 10.02 7 9 7 C9 5.68 9 4.36 9 3 C6.69 3 4.38 3 2 3 C2 4.65 2 6.3 2 8 C2.99 8 3.98 8 5 8 C5 9.65 5 11.3 5 13 C4.01 13 3.02 13 2 13 C2 13.99 2 14.98 2 16 C1.34 16 0.68 16 0 16 C0 10.72 0 5.44 0 0 Z " fill="#480A72" transform="translate(38,38)"/>
<path d="M0 0 C0.33 0 0.66 0 1 0 C1.144375 1.11375 1.28875 2.2275 1.4375 3.375 C1.78372035 6.82142047 1.78372035 6.82142047 3 9 C4.65 9 6.3 9 8 9 C7.38125 9.268125 6.7625 9.53625 6.125 9.8125 C3.7004767 10.95556848 3.7004767 10.95556848 2 14 C5.63 14 9.26 14 13 14 C13 14.33 13 14.66 13 15 C10.68756208 15.02685412 8.3750373 15.04632841 6.0625 15.0625 C4.77472656 15.07410156 3.48695312 15.08570313 2.16015625 15.09765625 C-1 15 -1 15 -2 14 C-2.04063832 12.33382885 -2.042721 10.66611905 -2 9 C-1.34 9 -0.68 9 0 9 C0 6.03 0 3.06 0 0 Z " fill="#4A077A" transform="translate(38,21)"/>
<path d="M0 0 C1.64574566 -0.02688151 3.29161413 -0.04634123 4.9375 -0.0625 C5.85402344 -0.07410156 6.77054688 -0.08570313 7.71484375 -0.09765625 C10 0 10 0 11 1 C11.04063832 2.66617115 11.042721 4.33388095 11 6 C10.01 6 9.02 6 8 6 C8 4.68 8 3.36 8 2 C5.36 2.33 2.72 2.66 0 3 C0 2.01 0 1.02 0 0 Z " fill="#51018A" transform="translate(39,39)"/>
<path d="M0 0 C0.99 0 1.98 0 3 0 C2.67 3.3 2.34 6.6 2 10 C1.34 10 0.68 10 0 10 C0 6.7 0 3.4 0 0 Z " fill="#580088" transform="translate(57,22)"/>
<path d="M0 0 C1.32 0 2.64 0 4 0 C4 1.65 4 3.3 4 5 C2.68 5.33 1.36 5.66 0 6 C0 4.02 0 2.04 0 0 Z " fill="#540186" transform="translate(39,46)"/>
<path d="M0 0 C1.98 0 3.96 0 6 0 C4.62308038 2.75383923 2.63279958 3.51483101 0 5 C0 3.35 0 1.7 0 0 Z " fill="#4B019F" transform="translate(9,9)"/>
</svg>
