<?xml version="1.0" encoding="UTF-8"?>
<svg version="1.1" xmlns="http://www.w3.org/2000/svg" width="64" height="64">
<path d="M0 0 C2.62565161 3.98082664 2.33519099 6.24474632 1.9375 10.9375 C2.9275 11.2675 3.9175 11.5975 4.9375 11.9375 C4.9375 14.2475 4.9375 16.5575 4.9375 18.9375 C6.00291016 19.02837891 6.00291016 19.02837891 7.08984375 19.12109375 C8.00894531 19.20488281 8.92804687 19.28867187 9.875 19.375 C11.24978516 19.49681641 11.24978516 19.49681641 12.65234375 19.62109375 C14.9375 19.9375 14.9375 19.9375 15.9375 20.9375 C16.08929378 23.24651696 16.15931122 25.56117069 16.1875 27.875 C16.21328125 29.14214844 16.2390625 30.40929688 16.265625 31.71484375 C16.15734375 32.77832031 16.0490625 33.84179688 15.9375 34.9375 C14.9475 35.5975 13.9575 36.2575 12.9375 36.9375 C13.9275 36.9375 14.9175 36.9375 15.9375 36.9375 C15.9375 38.9175 15.9375 40.8975 15.9375 42.9375 C16.9275 42.9375 17.9175 42.9375 18.9375 42.9375 C20.0625 49.5625 20.0625 49.5625 18.9375 52.9375 C17.9475 52.9375 16.9575 52.9375 15.9375 52.9375 C15.9375 54.2575 15.9375 55.5775 15.9375 56.9375 C-0.5625 56.9375 -17.0625 56.9375 -34.0625 56.9375 C-34.0625 55.6175 -34.0625 54.2975 -34.0625 52.9375 C-35.0525 52.9375 -36.0425 52.9375 -37.0625 52.9375 C-38.1875 46.3125 -38.1875 46.3125 -37.0625 42.9375 C-36.0725 42.9375 -35.0825 42.9375 -34.0625 42.9375 C-34.0625 40.9575 -34.0625 38.9775 -34.0625 36.9375 C-32.7425 36.9375 -31.4225 36.9375 -30.0625 36.9375 C-31.3825 36.2775 -32.7025 35.6175 -34.0625 34.9375 C-34.08935412 32.62506208 -34.10882841 30.3125373 -34.125 28 C-34.13660156 26.71222656 -34.14820313 25.42445312 -34.16015625 24.09765625 C-34.0625 20.9375 -34.0625 20.9375 -33.0625 19.9375 C-31.20962498 19.86523498 -29.35416122 19.8536878 -27.5 19.875 C-26.48808594 19.88402344 -25.47617187 19.89304687 -24.43359375 19.90234375 C-23.25990234 19.91974609 -23.25990234 19.91974609 -22.0625 19.9375 C-22.3925 19.2775 -22.7225 18.6175 -23.0625 17.9375 C-23.70641916 11.33732866 -21.67343977 5.43185835 -18.125 -0.0625 C-13.14693387 -4.88971564 -5.35444479 -3.60605465 0 0 Z M-16.0625 1.9375 C-15.7325 2.5975 -15.4025 3.2575 -15.0625 3.9375 C-10.7725 3.9375 -6.4825 3.9375 -2.0625 3.9375 C-3.7941934 0.60767559 -3.7941934 0.60767559 -7.375 0.125 C-11.01963794 -0.06032057 -12.86738497 0.29153165 -16.0625 1.9375 Z M-15.0625 6.9375 C-17.16763156 12.36652349 -17.43693637 16.25649633 -16.0625 21.9375 C-14.06070005 25.10734261 -14.06070005 25.10734261 -11.0625 26.9375 C-7.59123589 27.00692528 -5.88760188 26.64879472 -3.25 24.375 C-0.90975738 19.5713441 -0.56099037 15.00486964 -2 9.9375 C-2.350625 8.9475 -2.70125 7.9575 -3.0625 6.9375 C-7.01854392 5.72025572 -11.26890675 5.04070337 -15.0625 6.9375 Z M-20.0625 13.9375 C-19.0625 16.9375 -19.0625 16.9375 -19.0625 16.9375 Z M-25.0625 22.9375 C-25.0625 25.9075 -25.0625 28.8775 -25.0625 31.9375 C-22.0925 30.9475 -19.1225 29.9575 -16.0625 28.9375 C-17.15034968 25.68766865 -17.15034968 25.68766865 -19.0625 22.9375 C-21.06208364 22.89669217 -23.06295254 22.89495644 -25.0625 22.9375 Z M-0.9375 24.9375 C-1.30875 25.5975 -1.68 26.2575 -2.0625 26.9375 C-1.57544288 29.00152968 -1.57544288 29.00152968 -0.0625 30.9375 C3.49956661 31.75620185 3.49956661 31.75620185 6.9375 31.9375 C6.9375 28.9675 6.9375 25.9975 6.9375 22.9375 C2.47666168 22.40500717 2.47666168 22.40500717 -0.9375 24.9375 Z M-14.0625 29.9375 C-14.0625 30.9275 -14.0625 31.9175 -14.0625 32.9375 C-11.32344655 34.30702673 -9.09162668 34.06371361 -6.0625 33.9375 C-5.4025 33.6075 -4.7425 33.2775 -4.0625 32.9375 C-4.0625 31.9475 -4.0625 30.9575 -4.0625 29.9375 C-7.3625 29.9375 -10.6625 29.9375 -14.0625 29.9375 Z M-21.0625 32.9375 C-22.47827477 34.12174326 -22.47827477 34.12174326 -22.125 37.5 C-22.104375 38.634375 -22.08375 39.76875 -22.0625 40.9375 C-21.7325 40.9375 -21.4025 40.9375 -21.0625 40.9375 C-20.7325 38.2975 -20.4025 35.6575 -20.0625 32.9375 C-20.3925 32.9375 -20.7225 32.9375 -21.0625 32.9375 Z M2.9375 33.9375 C2.9375 36.2475 2.9375 38.5575 2.9375 40.9375 C3.2675 40.9375 3.5975 40.9375 3.9375 40.9375 C3.9375 38.6275 3.9375 36.3175 3.9375 33.9375 C3.6075 33.9375 3.2775 33.9375 2.9375 33.9375 Z M-18.0625 34.9375 C-18.0625 36.5875 -18.0625 38.2375 -18.0625 39.9375 C-15.7525 39.2775 -13.4425 38.6175 -11.0625 37.9375 C-14.11830974 35.34972792 -14.11830974 35.34972792 -18.0625 34.9375 Z M-7.0625 36.9375 C-4.44308783 38.68377478 -3.02425123 39.32472388 -0.0625 39.9375 C-0.0625 37.9575 -0.0625 35.9775 -0.0625 33.9375 C-2.43470987 33.9375 -4.99127733 35.87985438 -7.0625 36.9375 Z M-26.0625 37.9375 C-25.0625 39.9375 -25.0625 39.9375 -25.0625 39.9375 Z M6.9375 37.9375 C7.9375 39.9375 7.9375 39.9375 7.9375 39.9375 Z M-31.0625 40.9375 C-31.0625 41.9275 -31.0625 42.9175 -31.0625 43.9375 C-30.0725 44.4325 -30.0725 44.4325 -29.0625 44.9375 C-28.8125 50.5625 -28.8125 50.5625 -31.0625 53.9375 C-28.7525 53.9375 -26.4425 53.9375 -24.0625 53.9375 C-23.93875 52.638125 -23.815 51.33875 -23.6875 50 C-23.4765625 47.78515625 -23.4765625 47.78515625 -23.0625 45.9375 C-22.4025 45.6075 -21.7425 45.2775 -21.0625 44.9375 C-21.0625 47.9075 -21.0625 50.8775 -21.0625 53.9375 C-17.4325 53.9375 -13.8025 53.9375 -10.0625 53.9375 C-10.0625 49.6475 -10.0625 45.3575 -10.0625 40.9375 C-12.0425 41.4634375 -12.0425 41.4634375 -14.0625 42 C-20.01057452 43.3301206 -25.20753347 42.64519857 -31.0625 40.9375 Z M-7.0625 40.9375 C-7.0625 45.2275 -7.0625 49.5175 -7.0625 53.9375 C-0.4625 53.9375 6.1375 53.9375 12.9375 53.9375 C12.2775 52.9475 11.6175 51.9575 10.9375 50.9375 C10.8125 47.75 10.8125 47.75 10.9375 44.9375 C11.5975 44.6075 12.2575 44.2775 12.9375 43.9375 C12.6075 42.9475 12.2775 41.9575 11.9375 40.9375 C9.9575 41.5975 7.9775 42.2575 5.9375 42.9375 C5.81375 44.236875 5.69 45.53625 5.5625 46.875 C5.3515625 49.08984375 5.3515625 49.08984375 4.9375 50.9375 C3.9475 51.4325 3.9475 51.4325 2.9375 51.9375 C2.9375 49.2975 2.9375 46.6575 2.9375 43.9375 C-0.3625 42.9475 -3.6625 41.9575 -7.0625 40.9375 Z M-34.0625 45.9375 C-34.3925 46.9275 -34.7225 47.9175 -35.0625 48.9375 C-33.7425 49.2675 -32.4225 49.5975 -31.0625 49.9375 C-31.3925 48.6175 -31.7225 47.2975 -32.0625 45.9375 C-32.7225 45.9375 -33.3825 45.9375 -34.0625 45.9375 Z M13.9375 45.9375 C13.6075 47.2575 13.2775 48.5775 12.9375 49.9375 C14.2575 49.6075 15.5775 49.2775 16.9375 48.9375 C16.6075 47.9475 16.2775 46.9575 15.9375 45.9375 C15.2775 45.9375 14.6175 45.9375 13.9375 45.9375 Z " fill="#510288" transform="translate(41.0625,5.0625)"/>
<path d="M0 0 C2.4375 1.5 2.4375 1.5 4 4 C4.25359615 7.86734127 3.47381558 11.05236883 1.75 14.5 C0 16 0 16 -2.4375 16.5625 C-5 16 -5 16 -7.3125 14 C-9.62213066 9.89398994 -9.52770782 7.67398355 -9 3 C-6.89524812 -0.74178112 -4.00297686 -0.57185384 0 0 Z M-5 10 C-4.01 10.99 -3.02 11.98 -2 13 C-1.67 12.01 -1.34 11.02 -1 10 C-2.32 10 -3.64 10 -5 10 Z " fill="#510189" transform="translate(56,7)"/>
<path d="M0 0 C0 0.99 0 1.98 0 3 C0.99 3 1.98 3 3 3 C2.67 3.66 2.34 4.32 2 5 C-0.64 4.01 -3.28 3.02 -6 2 C-5.98839844 2.92683594 -5.97679688 3.85367188 -5.96484375 4.80859375 C-5.95582031 6.00613281 -5.94679688 7.20367187 -5.9375 8.4375 C-5.92589844 9.63246094 -5.91429688 10.82742187 -5.90234375 12.05859375 C-6 15 -6 15 -7 16 C0.92 16.33 8.84 16.66 17 17 C17 17.33 17 17.66 17 18 C0.5 18 -16 18 -33 18 C-33 17.67 -33 17.34 -33 17 C-31.85660156 16.93941406 -30.71320312 16.87882812 -29.53515625 16.81640625 C-28.04425695 16.73201572 -26.55337225 16.64736698 -25.0625 16.5625 C-24.30775391 16.52318359 -23.55300781 16.48386719 -22.77539062 16.44335938 C-19.08055813 16.55961976 -19.08055813 16.55961976 -16 15 C-13.66702567 14.95907063 -11.33294775 14.95758277 -9 15 C-9.020625 14.030625 -9.04125 13.06125 -9.0625 12.0625 C-9 9 -9 9 -8 8 C-7.63239269 5.67182036 -7.29758419 3.3381615 -7 1 C-4.50935112 0.31292445 -2.62113708 0 0 0 Z " fill="#48077A" transform="translate(40,44)"/>
<path d="M0 0 C0 0.99 0 1.98 0 3 C0.99 3 1.98 3 3 3 C2.67 3.66 2.34 4.32 2 5 C-0.64 4.01 -3.28 3.02 -6 2 C-6 5.63 -6 9.26 -6 13 C-6.33 13 -6.66 13 -7 13 C-7 9.04 -7 5.08 -7 1 C-3 0 -3 0 0 0 Z " fill="#480877" transform="translate(40,44)"/>
<path d="M0 0 C0.33 0.99 0.66 1.98 1 3 C3.97 3.495 3.97 3.495 7 4 C7 4.66 7 5.32 7 6 C3.625 6.1875 3.625 6.1875 0 6 C-0.66 5.01 -1.32 4.02 -2 3 C-1.34 3 -0.68 3 0 3 C0 2.01 0 1.02 0 0 Z " fill="#4C067C" transform="translate(53,52)"/>
<path d="M0 0 C0.99 0.33 1.98 0.66 3 1 C2.67 2.98 2.34 4.96 2 7 C1.34 7 0.68 7 0 7 C-0.38133299 5.0085944 -0.71325582 3.00720923 -1 1 C-0.67 0.67 -0.34 0.34 0 0 Z " fill="#430399" transform="translate(4,50)"/>
<path d="M0 0 C3.3 0 6.6 0 10 0 C9.67 1.65 9.34 3.3 9 5 C8.62875 4.525625 8.2575 4.05125 7.875 3.5625 C5.37353038 1.47794198 3.18406582 1.35378509 0 1 C0 0.67 0 0.34 0 0 Z " fill="#490879" transform="translate(16,27)"/>
</svg>
