<?xml version="1.0" encoding="UTF-8"?>
<svg version="1.1" xmlns="http://www.w3.org/2000/svg" width="64" height="64">
<path d="M0 0 C7.17113498 0.06437016 13.49666794 0.23660811 19.21118164 5.08813477 C23.24101028 9.44153078 25.95619959 13.63275688 26.12304688 19.75341797 C25.76757812 22.21044922 25.76757812 22.21044922 25.31054688 23.94091797 C24.32054687 24.27091797 23.33054688 24.60091797 22.31054688 24.94091797 C22.40335938 23.05373047 22.40335938 23.05373047 22.49804688 21.12841797 C21.6914503 15.36308562 18.99226903 10.90602855 14.58398438 7.14013672 C5.90382849 1.53110908 -7.79565662 3.59912677 -17.68945312 3.94091797 C-17.68945312 4.93091797 -17.68945312 5.92091797 -17.68945312 6.94091797 C-17.06079346 6.87283936 -16.43213379 6.80476074 -15.78442383 6.73461914 C3.32737338 4.93933736 3.32737338 4.93933736 9.73242188 9.62451172 C14.03746923 13.52850663 18.07242161 17.35975765 18.62695312 23.37060547 C18.52253906 24.21880859 18.418125 25.06701172 18.31054688 25.94091797 C17.32054687 25.94091797 16.33054688 25.94091797 15.31054688 25.94091797 C15.31054688 24.95091797 15.31054688 23.96091797 15.31054688 22.94091797 C14.15425781 22.993125 14.15425781 22.993125 12.97460938 23.04638672 C11.97171875 23.07345703 10.96882813 23.10052734 9.93554688 23.12841797 C8.43894531 23.180625 8.43894531 23.180625 6.91210938 23.23388672 C6.05359375 23.13720703 5.19507812 23.04052734 4.31054688 22.94091797 C2.31054688 19.94091797 2.31054688 19.94091797 2.31054688 9.94091797 C-6.26945312 9.94091797 -14.84945313 9.94091797 -23.68945312 9.94091797 C-23.68945312 27.10091797 -23.68945312 44.26091797 -23.68945312 61.94091797 C-13.12945312 61.94091797 -2.56945312 61.94091797 8.31054688 61.94091797 C8.31054688 62.93091797 8.31054688 63.92091797 8.31054688 64.94091797 C-3.23945313 64.94091797 -14.78945313 64.94091797 -26.68945312 64.94091797 C-26.71039897 57.53306969 -26.73043702 50.12532809 -26.74120331 42.71747589 C-26.74649289 39.26809935 -26.75356613 35.81874722 -26.76489258 32.36938477 C-26.77779547 28.41536754 -26.7826823 24.46136041 -26.78710938 20.50732422 C-26.79227066 19.26568008 -26.79743195 18.02403595 -26.80274963 16.74476624 C-26.80282516 15.60365891 -26.8029007 14.46255157 -26.80297852 13.28686523 C-26.80519913 12.27648697 -26.80741974 11.2661087 -26.80970764 10.22511292 C-26.68945312 7.94091797 -26.68945312 7.94091797 -25.68945312 6.94091797 C-24.02328197 6.90027965 -22.35557218 6.89819697 -20.68945312 6.94091797 C-20.71007812 6.13654297 -20.73070312 5.33216797 -20.75195312 4.50341797 C-20.59195206 -2.05662562 -5.41215658 0.04907396 0 0 Z M5.31054688 11.94091797 C5.26812964 14.27386572 5.2696175 16.60794364 5.31054688 18.94091797 C6.49479014 20.35669274 6.49479014 20.35669274 9.87304688 20.00341797 C11.57460938 19.97248047 11.57460938 19.97248047 13.31054688 19.94091797 C12.35632879 18.79165531 11.39702643 17.64661256 10.43554688 16.50341797 C9.901875 15.86533203 9.36820313 15.22724609 8.81835938 14.56982422 C7.38827117 12.83286793 7.38827117 12.83286793 5.31054688 11.94091797 Z " fill="#510289" transform="translate(26.689453125,-0.94091796875)"/>
<path d="M0 0 C3.26077386 2.15072319 4.64812574 3.74608345 5.70703125 7.51953125 C6.0614537 9.30184273 6.37470092 11.09297824 6.640625 12.890625 C6.78741203 14.98017997 6.78741203 14.98017997 8 16 C8.09899523 17.54955559 8.13079524 19.10353673 8.1328125 20.65625 C8.13474609 22.06583984 8.13474609 22.06583984 8.13671875 23.50390625 C8.13285156 24.49261719 8.12898438 25.48132813 8.125 26.5 C8.13080078 27.98306641 8.13080078 27.98306641 8.13671875 29.49609375 C8.13542969 30.43582031 8.13414063 31.37554687 8.1328125 32.34375 C8.13168457 33.21193359 8.13055664 34.08011719 8.12939453 34.97460938 C8 37 8 37 7 38 C5.08541718 38.09971786 3.16717683 38.13080589 1.25 38.1328125 C0.0846875 38.13410156 -1.080625 38.13539062 -2.28125 38.13671875 C-3.5084375 38.13285156 -4.735625 38.12898438 -6 38.125 C-7.84078125 38.13080078 -7.84078125 38.13080078 -9.71875 38.13671875 C-10.8840625 38.13542969 -12.049375 38.13414063 -13.25 38.1328125 C-14.32765625 38.13168457 -15.4053125 38.13055664 -16.515625 38.12939453 C-19 38 -19 38 -20 37 C-20.09899523 35.45044441 -20.13079524 33.89646327 -20.1328125 32.34375 C-20.13410156 31.40402344 -20.13539062 30.46429688 -20.13671875 29.49609375 C-20.13285156 28.50738281 -20.12898438 27.51867187 -20.125 26.5 C-20.12886719 25.51128906 -20.13273437 24.52257812 -20.13671875 23.50390625 C-20.13542969 22.56417969 -20.13414063 21.62445313 -20.1328125 20.65625 C-20.13168457 19.78806641 -20.13055664 18.91988281 -20.12939453 18.02539062 C-20 16 -20 16 -19 15 C-18.73078423 13.41982048 -18.48456993 11.83569272 -18.25 10.25 C-17.33671168 5.45008622 -15.99561852 3.02107742 -12 0 C-7.79641493 -1.40119502 -4.27768555 -1.06002401 0 0 Z M-8 2 C-8.66 2.66 -9.32 3.32 -10 4 C-8.02 3.67 -6.04 3.34 -4 3 C-5.89179203 2.3185177 -5.89179203 2.3185177 -8 2 Z M-13 5 C-12 7 -12 7 -12 7 Z M1 6 C2 8 2 8 2 8 Z M-14 7 C-13 9 -13 9 -13 9 Z M-9 7 C-11.36980013 9.95377498 -11.36980013 9.95377498 -11 14 C-7.7 14 -4.4 14 -1 14 C-1.27540704 10.18186553 -1.27540704 10.18186553 -3 7 C-5.95804573 6.66659529 -5.95804573 6.66659529 -9 7 Z M2 8 C2 9.98 2 11.96 2 14 C2.33 14 2.66 14 3 14 C3 12.02 3 10.04 3 8 C2.67 8 2.34 8 2 8 Z M-15 9 C-15 10.65 -15 12.3 -15 14 C-14.67 14 -14.34 14 -14 14 C-14 12.35 -14 10.7 -14 9 C-14.33 9 -14.66 9 -15 9 Z M-17 18 C-17.07330331 20.86469325 -17.09217831 23.69893674 -17.0625 26.5625 C-17.041875 29.346875 -17.02125 32.13125 -17 35 C-9.74 35 -2.48 35 5 35 C5.020625 32.215625 5.04125 29.43125 5.0625 26.5625 C5.071604 25.68408447 5.08070801 24.80566895 5.09008789 23.90063477 C5.09723091 21.93354026 5.05031893 19.96646379 5 18 C3.41062444 16.41062444 1.76100154 16.87018857 -0.4375 16.8671875 C-1.33210938 16.86589844 -2.22671875 16.86460938 -3.1484375 16.86328125 C-4.55996094 16.86908203 -4.55996094 16.86908203 -6 16.875 C-6.94101562 16.87113281 -7.88203125 16.86726563 -8.8515625 16.86328125 C-10.19347656 16.86521484 -10.19347656 16.86521484 -11.5625 16.8671875 C-12.80193359 16.86887939 -12.80193359 16.86887939 -14.06640625 16.87060547 C-16.00679039 16.78735193 -16.00679039 16.78735193 -17 18 Z " fill="#510289" transform="translate(56,26)"/>
<path d="M0 0 C3.17781029 2.58197086 5.68987052 4.78478945 6.2734375 8.953125 C6.45733995 13.11214963 6.45772237 16.07914558 3.8125 19.4375 C-0.08532044 22.98884751 -2.15613636 24.03352479 -7.4375 23.9375 C-11.90466632 22.76192992 -13.71851539 21.20335403 -17 18 C-18.72732636 14.54534728 -18.35415682 10.78423122 -18 7 C-16.63845797 3.5205037 -15.40926552 2.29233251 -12.375 0.125 C-7.96320244 -1.34559919 -4.45266703 -1.36942062 0 0 Z M-13 5 C-14.59130748 6.68250878 -14.59130748 6.68250878 -15 9 C-14.68873287 12.68203915 -14.68873287 12.68203915 -14 16 C-12.35429841 14.94369738 -12.35429841 14.94369738 -11 13 C-10.7496423 9.37464024 -10.7496423 9.37464024 -11 6 C-7.7 6 -4.4 6 -1 6 C-1.09765625 8.01822917 -1.1953125 10.03645833 -1.29296875 12.0546875 C-1.19628906 12.69664063 -1.09960938 13.33859375 -1 14 C-0.01 14.66 0.98 15.32 2 16 C2.79754303 12.30230051 3.28248211 9.79448093 2 6.1875 C-2.6243074 1.12966378 -7.60376428 1.23518438 -13 5 Z M-8 8 C-8.33 8.99 -8.66 9.98 -9 11 C-7.02 11.99 -7.02 11.99 -5 13 C-4.34 12.01 -3.68 11.02 -3 10 C-3.33 9.34 -3.66 8.68 -4 8 C-5.32 8 -6.64 8 -8 8 Z M-9 16 C-9.33 17.32 -9.66 18.64 -10 20 C-6.71303767 20.79953138 -5.28976808 21.09658936 -2 20 C-2.33 18.68 -2.66 17.36 -3 16 C-4.98 16 -6.96 16 -9 16 Z " fill="#510288" transform="translate(22,12)"/>
<path d="M0 0 C2.4375 0.6875 2.4375 0.6875 5 2 C6.70510273 6.09224656 5.57917814 9.00560824 4 13 C2.35 13.33 0.7 13.66 -1 14 C-3.35931785 10.46102322 -3.85146936 8.23312311 -4 4 C-2.0625 1.5625 -2.0625 1.5625 0 0 Z M0 4 C0.33 6.31 0.66 8.62 1 11 C1.33 11 1.66 11 2 11 C2.33 9.02 2.66 7.04 3 5 C2.01 4.67 1.02 4.34 0 4 Z " fill="#4E0387" transform="translate(49,45)"/>
<path d="M0 0 C1.69807876 1.41674027 3.37920356 2.84762226 5.04296875 4.3046875 C6.2668153 5.36486594 7.51654379 6.39665184 8.80078125 7.3828125 C11.51814805 9.6526893 12.85878164 11.00998497 13.37109375 14.6015625 C13.37460875 17.09721111 13.26472024 19.51947328 13 22 C12.01 22.33 11.02 22.66 10 23 C10.061875 21.741875 10.12375 20.48375 10.1875 19.1875 C9.49809753 11.9717541 3.12386678 7.51609345 -2 3 C-1.34 2.67 -0.68 2.34 0 2 C0 1.34 0 0.68 0 0 Z " fill="#4E047E" transform="translate(39,1)"/>
<path d="M0 0 C8.91 0 17.82 0 27 0 C27 0.99 27 1.98 27 3 C18.09 3 9.18 3 0 3 C0 2.01 0 1.02 0 0 Z " fill="#4E0483" transform="translate(4,49)"/>
<path d="M0 0 C8.91 0 17.82 0 27 0 C27 0.99 27 1.98 27 3 C18.09 3 9.18 3 0 3 C0 2.01 0 1.02 0 0 Z " fill="#4D0484" transform="translate(4,43)"/>
<path d="M0 0 C8.91 0 17.82 0 27 0 C27 0.99 27 1.98 27 3 C18.09 3 9.18 3 0 3 C0 2.01 0 1.02 0 0 Z " fill="#4E0484" transform="translate(4,38)"/>
<path d="M0 0 C1.32 0.66 2.64 1.32 4 2 C4 3.98 4 5.96 4 8 C3.01 8 2.02 8 1 8 C1 6.68 1 5.36 1 4 C-2.3 4 -5.6 4 -9 4 C-9 3.34 -9 2.68 -9 2 C-6.94921875 1.77213542 -4.8984375 1.54427083 -2.84765625 1.31640625 C-0.98859771 1.18113386 -0.98859771 1.18113386 0 0 Z " fill="#520187" transform="translate(41,17)"/>
<path d="M0 0 C4.62 0 9.24 0 14 0 C14 0.99 14 1.98 14 3 C9.38 3 4.76 3 0 3 C0 2.01 0 1.02 0 0 Z " fill="#52037E" transform="translate(4,54)"/>
<path d="M0 0 C5.61 0 11.22 0 17 0 C16.67 0.99 16.34 1.98 16 3 C10.72 2.67 5.44 2.34 0 2 C0 1.34 0 0.68 0 0 Z " fill="#530090" transform="translate(16,7)"/>
<path d="M0 0 C0.99 0 1.98 0 3 0 C3 0.66 3 1.32 3 2 C3.99 2.33 4.98 2.66 6 3 C4.68 3 3.36 3 2 3 C2 3.99 2 4.98 2 6 C1.01 6 0.02 6 -1 6 C-1.042721 4.33388095 -1.04063832 2.66617115 -1 1 C-0.67 0.67 -0.34 0.34 0 0 Z " fill="#480589" transform="translate(7,0)"/>
<path d="M0 0 C2.475 0.495 2.475 0.495 5 1 C5 3.97 5 6.94 5 10 C4.67 10 4.34 10 4 10 C3.896875 9.2575 3.79375 8.515 3.6875 7.75 C2.95542364 4.82169457 1.89273262 3.30419624 0 1 C0 0.67 0 0.34 0 0 Z " fill="#4C067C" transform="translate(23,18)"/>
<path d="M0 0 C0.66 0.33 1.32 0.66 2 1 C0.02 1.99 0.02 1.99 -2 3 C-1.67 3.66 -1.34 4.32 -1 5 C-2.32 5.33 -3.64 5.66 -5 6 C-5.33 5.01 -5.66 4.02 -6 3 C-4.03533587 1.93224776 -2.03144641 0.93446535 0 0 Z " fill="#4A0684" transform="translate(13,11)"/>
</svg>
