<?xml version="1.0" encoding="UTF-8"?>
<svg version="1.1" xmlns="http://www.w3.org/2000/svg" width="64" height="64">
<path d="M0 0 C10.55808656 -0.55353075 10.55808656 -0.55353075 15 3 C15.474375 2.505 15.94875 2.01 16.4375 1.5 C20.20358351 -0.70453669 23.73459379 -0.24608113 28 0 C28.58984375 1.890625 28.58984375 1.890625 29 4 C27.5625 5.75 27.5625 5.75 26 7 C26.928125 7.4125 27.85625 7.825 28.8125 8.25 C31.90464836 9.94765008 33.29702538 10.97248956 35 14 C35 14.99 35 15.98 35 17 C32.69 17 30.38 17 28 17 C28.66 17.99 29.32 18.98 30 20 C30.1953125 22.48046875 30.1953125 22.48046875 30.125 25.1875 C30.10695312 26.08855469 30.08890625 26.98960938 30.0703125 27.91796875 C30.04710937 28.60503906 30.02390625 29.29210937 30 30 C26 30 26 30 24.1484375 28.50390625 C23.56320313 27.86324219 22.97796875 27.22257812 22.375 26.5625 C19.97303967 23.90410125 19.97303967 23.90410125 17 22 C16.97873047 22.83917969 16.97873047 22.83917969 16.95703125 23.6953125 C16.35011046 33.89814302 12.53076787 42.93846426 8 52 C32.75 52.495 32.75 52.495 58 53 C58 53.99 58 54.98 58 56 C44.47 56.33 30.94 56.66 17 57 C18.32 58.32 19.64 59.64 21 61 C20.67 61.99 20.34 62.98 20 64 C16.7173068 62.50923566 14.06922559 60.61379679 11.25 58.375 C10.45078125 57.74335937 9.6515625 57.11171875 8.828125 56.4609375 C8.22484375 55.97882812 7.6215625 55.49671875 7 55 C5.68 55.99 4.36 56.98 3 58 C2.34 57.67 1.68 57.34 1 57 C2.48904175 53.10391502 4.24378713 49.40902982 6.125 45.6875 C6.93324219 44.08455078 6.93324219 44.08455078 7.7578125 42.44921875 C8.37269531 41.23685547 8.37269531 41.23685547 9 40 C8.54109375 40.77085938 8.0821875 41.54171875 7.609375 42.3359375 C6.99578125 43.33882812 6.3821875 44.34171875 5.75 45.375 C5.14671875 46.37273438 4.5434375 47.37046875 3.921875 48.3984375 C2.03243049 50.95610019 1.00451832 52.06416643 -2 53 C-4.25 52.125 -4.25 52.125 -6 51 C-6 49.68 -6 48.36 -6 47 C-4.02 47.33 -2.04 47.66 0 48 C0.2475 47.34 0.495 46.68 0.75 46 C1.71775287 43.67739312 2.75257391 41.5814141 3.9375 39.375 C6.43948551 34.48347776 7.70978753 29.31723927 9 24 C6.69 26.31 4.38 28.62 2 31 C1.01 30.67 0.02 30.34 -1 30 C-2.24834144 27.50331711 -1.95155125 26.18670849 -1.625 23.4375 C-1.53476563 22.63183594 -1.44453125 21.82617188 -1.3515625 20.99609375 C-1 19 -1 19 0 18 C-1.98 17.67 -3.96 17.34 -6 17 C-6 14.25 -6 14.25 -5 11 C-2.49568941 9.25280657 0.15951732 8.09995912 3 7 C1.68 5.68 0.36 4.36 -1 3 C-0.67 2.01 -0.34 1.02 0 0 Z M5 3 C6.61594832 5.04119788 8.2856382 7.04072937 10 9 C10.66 9 11.32 9 12 9 C11.72382467 7.05925139 11.72382467 7.05925139 11 5 C8.18490007 2.7226499 8.18490007 2.7226499 5 3 Z M20 3 C18.35 4.98 16.7 6.96 15 9 C15.33 9.66 15.66 10.32 16 11 C18.64 8.69 21.28 6.38 24 4 C22.68 3.67 21.36 3.34 20 3 Z M-0.72265625 12.515625 C-1.14417969 13.00546875 -1.56570312 13.4953125 -2 14 C-0.5629191 14.05422947 0.87475462 14.09289723 2.3125 14.125 C3.51326172 14.15980469 3.51326172 14.15980469 4.73828125 14.1953125 C7.28388576 14.15817322 7.28388576 14.15817322 10 12 C6.53185216 10.26592608 2.28189941 9.87216107 -0.72265625 12.515625 Z M20 11 C19.67 11.66 19.34 12.32 19 13 C21.75078884 13.91692961 23.35948913 14.10886083 26.1875 14.0625 C27.445625 14.041875 28.70375 14.02125 30 14 C28.94369738 12.35429841 28.94369738 12.35429841 27 11 C23.37464024 10.7496423 23.37464024 10.7496423 20 11 Z M3.296875 19.5546875 C1.50001243 21.55721506 1.15123577 23.35337395 1 26 C6.53038493 21.50830072 6.53038493 21.50830072 11 16 C7.37124133 16 5.98260647 17.22793994 3.296875 19.5546875 Z M18 16 C18.93274109 17.12894876 19.87140122 18.25300876 20.8125 19.375 C21.33457031 20.00148438 21.85664063 20.62796875 22.39453125 21.2734375 C24.08225739 23.2221048 24.08225739 23.2221048 27 25 C26.64212875 22.35175278 26.31760089 20.44464124 24.75 18.25 C22.55535876 16.68239911 20.64824722 16.35787125 18 16 Z M14 18 C12.58422523 19.18424326 12.58422523 19.18424326 12.9375 22.5625 C12.958125 23.696875 12.97875 24.83125 13 26 C13.33 26 13.66 26 14 26 C14.33 23.36 14.66 20.72 15 18 C14.67 18 14.34 18 14 18 Z M12 26 C12 27.65 12 29.3 12 31 C12.33 31 12.66 31 13 31 C13 29.35 13 27.7 13 26 C12.67 26 12.34 26 12 26 Z M11 31 C12 34 12 34 12 34 Z M10 34 C11 37 11 37 11 37 Z " fill="#510288" transform="translate(6,0)"/>
<path d="M0 0 C3.81357279 3.23324649 5.83136779 5.24622504 6.3125 10.25 C5.9413702 14.70355765 4.89685726 16.6333821 2 20 C-1.09985526 21.92693706 -2.83174654 22.00600905 -6.5 21.875 C-10.31676375 20.92080906 -12.1992823 19.71834365 -15 17 C-16.73263912 13.53472176 -16.4719774 9.78892972 -16 6 C-14.20726402 2.87931144 -12.75740595 1.45034948 -9.6875 -0.375 C-6.04992671 -1.22094728 -3.60960985 -0.96685978 0 0 Z M-11.5 5.0625 C-13.45640324 8.89378967 -13.13891039 10.8999226 -12 15 C-11.08333333 17.08333333 -11.08333333 17.08333333 -9 18 C-5.90437069 18.39309578 -3.95663395 18.62338668 -1 18 C1.74612994 16.08817732 1.74612994 16.08817732 3 13 C3 9.22089384 2.83289714 6.99306967 0.375 4.0625 C-4.14237679 2.04156828 -7.6192185 1.86085526 -11.5 5.0625 Z " fill="#4C0583" transform="translate(52,30)"/>
<path d="M0 0 C7.26 0 14.52 0 22 0 C22 0.99 22 1.98 22 3 C14.74 3 7.48 3 0 3 C0 2.01 0 1.02 0 0 Z " fill="#4E0288" transform="translate(36,57)"/>
<path d="M0 0 C4.62 0 9.24 0 14 0 C14 0.99 14 1.98 14 3 C9.38 3 4.76 3 0 3 C0 2.01 0 1.02 0 0 Z " fill="#500286" transform="translate(40,61)"/>
<path d="M0 0 C0 0.99 0 1.98 0 3 C-2.97 3 -5.94 3 -9 3 C-8.67 2.01 -8.34 1.02 -8 0 C-4.71023192 -1.09658936 -3.28696233 -0.79953138 0 0 Z " fill="#510287" transform="translate(50,30)"/>
<path d="M0 0 C-0.75 2.9375 -0.75 2.9375 -2 6 C-4.125 6.875 -4.125 6.875 -6 7 C-5.6875 4.625 -5.6875 4.625 -5 2 C-2 0 -2 0 0 0 Z " fill="#4B0293" transform="translate(13,41)"/>
<path d="M0 0 C0.99 0 1.98 0 3 0 C3 0.99 3 1.98 3 3 C2.01 3 1.02 3 0 3 C0 2.01 0 1.02 0 0 Z " fill="#490974" transform="translate(6,59)"/>
<path d="M0 0 C0.99 0 1.98 0 3 0 C3 0.99 3 1.98 3 3 C2.01 3 1.02 3 0 3 C0 2.01 0 1.02 0 0 Z " fill="#510478" transform="translate(12,57)"/>
</svg>
